<?xml version="1.0" encoding="utf-8" standalone="no"?>
<!DOCTYPE svg PUBLIC "-//W3C//DTD SVG 1.1//EN"
  "http://www.w3.org/Graphics/SVG/1.1/DTD/svg11.dtd">
<svg xmlns:xlink="http://www.w3.org/1999/xlink" width="1080pt" height="489.6pt" viewBox="0 0 1080 489.6" xmlns="http://www.w3.org/2000/svg" version="1.1">
 <metadata>
  <rdf:RDF xmlns:dc="http://purl.org/dc/elements/1.1/" xmlns:cc="http://creativecommons.org/ns#" xmlns:rdf="http://www.w3.org/1999/02/22-rdf-syntax-ns#">
   <cc:Work>
    <dc:type rdf:resource="http://purl.org/dc/dcmitype/StillImage"/>
    <dc:format>image/svg+xml</dc:format>
    <dc:creator>
     <cc:Agent>
      <dc:title>Capntproto CI reporting</dc:title>
     </cc:Agent>
    </dc:creator>
   </cc:Work>
  </rdf:RDF>
 </metadata>
 <defs>
  <style type="text/css">*{stroke-linejoin: round; stroke-linecap: butt}</style>
 </defs>
 <g id="figure_1">
  <g id="patch_1">
   <path d="M 0 489.6
L 1080 489.6
L 1080 0
L 0 0
z
" style="fill: #ffffff"/>
  </g>
  <g id="axes_1">
   <g id="patch_2">
    <path d="M 81 416.16
L 1053 416.16
L 1053 127.296
L 81 127.296
z
" style="fill: #f8fafc"/>
   </g>
   <g id="matplotlib.axis_1">
    <g id="xtick_1">
     <g id="line2d_1">
      <path d="M 185.575552 416.16
L 185.575552 127.296
" clip-path="url(#p206239bbfb)" style="fill: none; stroke: #e2e8f0; stroke-width: 0.7; stroke-linecap: square"/>
     </g>
     <g id="line2d_2">
      <defs>
       <path id="md0d3c5b989" d="M 0 0
L 0 3.5
" style="stroke: #64748b; stroke-width: 0.8"/>
      </defs>
      <g>
       <use xlink:href="#md0d3c5b989" x="185.575552" y="416.16" style="fill: #64748b; stroke: #64748b; stroke-width: 0.8"/>
      </g>
     </g>
     <g id="text_1">
      <text style="font-size: 11px; font-family: 'DejaVu Sans'; text-anchor: middle; fill: #64748b" x="185.575552" y="431.517422" transform="rotate(-0 185.575552 431.517422)">12:00</text>
     </g>
    </g>
    <g id="xtick_2">
     <g id="line2d_3">
      <path d="M 332.363516 416.16
L 332.363516 127.296
" clip-path="url(#p206239bbfb)" style="fill: none; stroke: #e2e8f0; stroke-width: 0.7; stroke-linecap: square"/>
     </g>
     <g id="line2d_4">
      <g>
       <use xlink:href="#md0d3c5b989" x="332.363516" y="416.16" style="fill: #64748b; stroke: #64748b; stroke-width: 0.8"/>
      </g>
     </g>
     <g id="text_2">
      <text style="font-size: 11px; font-family: 'DejaVu Sans'; text-anchor: middle; fill: #64748b" x="332.363516" y="431.517422" transform="rotate(-0 332.363516 431.517422)">18:00</text>
     </g>
    </g>
    <g id="xtick_3">
     <g id="line2d_5">
      <path d="M 479.151481 416.16
L 479.151481 127.296
" clip-path="url(#p206239bbfb)" style="fill: none; stroke: #e2e8f0; stroke-width: 0.7; stroke-linecap: square"/>
     </g>
     <g id="line2d_6">
      <g>
       <use xlink:href="#md0d3c5b989" x="479.151481" y="416.16" style="fill: #64748b; stroke: #64748b; stroke-width: 0.8"/>
      </g>
     </g>
     <g id="text_3">
      <text style="font-size: 11px; font-family: 'DejaVu Sans'; text-anchor: middle; fill: #64748b" x="479.151481" y="431.517422" transform="rotate(-0 479.151481 431.517422)">Oct-04</text>
     </g>
    </g>
    <g id="xtick_4">
     <g id="line2d_7">
      <path d="M 625.939445 416.16
L 625.939445 127.296
" clip-path="url(#p206239bbfb)" style="fill: none; stroke: #e2e8f0; stroke-width: 0.7; stroke-linecap: square"/>
     </g>
     <g id="line2d_8">
      <g>
       <use xlink:href="#md0d3c5b989" x="625.939445" y="416.16" style="fill: #64748b; stroke: #64748b; stroke-width: 0.8"/>
      </g>
     </g>
     <g id="text_4">
      <text style="font-size: 11px; font-family: 'DejaVu Sans'; text-anchor: middle; fill: #64748b" x="625.939445" y="431.517422" transform="rotate(-0 625.939445 431.517422)">06:00</text>
     </g>
    </g>
    <g id="xtick_5">
     <g id="line2d_9">
      <path d="M 772.72741 416.16
L 772.72741 127.296
" clip-path="url(#p206239bbfb)" style="fill: none; stroke: #e2e8f0; stroke-width: 0.7; stroke-linecap: square"/>
     </g>
     <g id="line2d_10">
      <g>
       <use xlink:href="#md0d3c5b989" x="772.72741" y="416.16" style="fill: #64748b; stroke: #64748b; stroke-width: 0.8"/>
      </g>
     </g>
     <g id="text_5">
      <text style="font-size: 11px; font-family: 'DejaVu Sans'; text-anchor: middle; fill: #64748b" x="772.72741" y="431.517422" transform="rotate(-0 772.72741 431.517422)">12:00</text>
     </g>
    </g>
    <g id="xtick_6">
     <g id="line2d_11">
      <path d="M 919.515374 416.16
L 919.515374 127.296
" clip-path="url(#p206239bbfb)" style="fill: none; stroke: #e2e8f0; stroke-width: 0.7; stroke-linecap: square"/>
     </g>
     <g id="line2d_12">
      <g>
       <use xlink:href="#md0d3c5b989" x="919.515374" y="416.16" style="fill: #64748b; stroke: #64748b; stroke-width: 0.8"/>
      </g>
     </g>
     <g id="text_6">
      <text style="font-size: 11px; font-family: 'DejaVu Sans'; text-anchor: middle; fill: #64748b" x="919.515374" y="431.517422" transform="rotate(-0 919.515374 431.517422)">18:00</text>
     </g>
    </g>
    <g id="text_7">
     <text style="font-weight: 700; font-size: 11px; font-family: 'DejaVu Sans'; text-anchor: middle; fill: #334155" x="567" y="446.518281" transform="rotate(-0 567 446.518281)">Run date (UTC)</text>
    </g>
    <g id="text_8">
     <text style="font-size: 11px; font-family: 'DejaVu Sans'; text-anchor: end; fill: #64748b" x="1053" y="445.517422" transform="rotate(-0 1053 445.517422)">2026-Oct-04</text>
    </g>
   </g>
   <g id="matplotlib.axis_2">
    <g id="ytick_1">
     <g id="line2d_13">
      <path d="M 81 416.16
L 1053 416.16
" clip-path="url(#p206239bbfb)" style="fill: none; stroke: #e2e8f0; stroke-width: 0.7; stroke-linecap: square"/>
     </g>
     <g id="line2d_14">
      <defs>
       <path id="m27e6ce2fef" d="M 0 0
L -3.5 0
" style="stroke: #334155; stroke-width: 0.8"/>
      </defs>
      <g>
       <use xlink:href="#m27e6ce2fef" x="81" y="416.16" style="fill: #334155; stroke: #334155; stroke-width: 0.8"/>
      </g>
     </g>
     <g id="text_9">
      <text style="font-size: 11px; font-family: 'DejaVu Sans'; text-anchor: end; fill: #334155" x="74" y="420.338711" transform="rotate(-0 74 420.338711)">0</text>
     </g>
    </g>
    <g id="ytick_2">
     <g id="line2d_15">
      <path d="M 81 373.140677
L 1053 373.140677
" clip-path="url(#p206239bbfb)" style="fill: none; stroke: #e2e8f0; stroke-width: 0.7; stroke-linecap: square"/>
     </g>
     <g id="line2d_16">
      <g>
       <use xlink:href="#m27e6ce2fef" x="81" y="373.140677" style="fill: #334155; stroke: #334155; stroke-width: 0.8"/>
      </g>
     </g>
     <g id="text_10">
      <text style="font-size: 11px; font-family: 'DejaVu Sans'; text-anchor: end; fill: #334155" x="74" y="377.319388" transform="rotate(-0 74 377.319388)">200</text>
     </g>
    </g>
    <g id="ytick_3">
     <g id="line2d_17">
      <path d="M 81 330.121354
L 1053 330.121354
" clip-path="url(#p206239bbfb)" style="fill: none; stroke: #e2e8f0; stroke-width: 0.7; stroke-linecap: square"/>
     </g>
     <g id="line2d_18">
      <g>
       <use xlink:href="#m27e6ce2fef" x="81" y="330.121354" style="fill: #334155; stroke: #334155; stroke-width: 0.8"/>
      </g>
     </g>
     <g id="text_11">
      <text style="font-size: 11px; font-family: 'DejaVu Sans'; text-anchor: end; fill: #334155" x="74" y="334.300065" transform="rotate(-0 74 334.300065)">400</text>
     </g>
    </g>
    <g id="ytick_4">
     <g id="line2d_19">
      <path d="M 81 287.102031
L 1053 287.102031
" clip-path="url(#p206239bbfb)" style="fill: none; stroke: #e2e8f0; stroke-width: 0.7; stroke-linecap: square"/>
     </g>
     <g id="line2d_20">
      <g>
       <use xlink:href="#m27e6ce2fef" x="81" y="287.102031" style="fill: #334155; stroke: #334155; stroke-width: 0.8"/>
      </g>
     </g>
     <g id="text_12">
      <text style="font-size: 11px; font-family: 'DejaVu Sans'; text-anchor: end; fill: #334155" x="74" y="291.280742" transform="rotate(-0 74 291.280742)">600</text>
     </g>
    </g>
    <g id="ytick_5">
     <g id="line2d_21">
      <path d="M 81 244.082707
L 1053 244.082707
" clip-path="url(#p206239bbfb)" style="fill: none; stroke: #e2e8f0; stroke-width: 0.7; stroke-linecap: square"/>
     </g>
     <g id="line2d_22">
      <g>
       <use xlink:href="#m27e6ce2fef" x="81" y="244.082707" style="fill: #334155; stroke: #334155; stroke-width: 0.8"/>
      </g>
     </g>
     <g id="text_13">
      <text style="font-size: 11px; font-family: 'DejaVu Sans'; text-anchor: end; fill: #334155" x="74" y="248.261418" transform="rotate(-0 74 248.261418)">800</text>
     </g>
    </g>
    <g id="ytick_6">
     <g id="line2d_23">
      <path d="M 81 201.063384
L 1053 201.063384
" clip-path="url(#p206239bbfb)" style="fill: none; stroke: #e2e8f0; stroke-width: 0.7; stroke-linecap: square"/>
     </g>
     <g id="line2d_24">
      <g>
       <use xlink:href="#m27e6ce2fef" x="81" y="201.063384" style="fill: #334155; stroke: #334155; stroke-width: 0.8"/>
      </g>
     </g>
     <g id="text_14">
      <text style="font-size: 11px; font-family: 'DejaVu Sans'; text-anchor: end; fill: #334155" x="74" y="205.242095" transform="rotate(-0 74 205.242095)">1000</text>
     </g>
    </g>
    <g id="ytick_7">
     <g id="line2d_25">
      <path d="M 81 158.044061
L 1053 158.044061
" clip-path="url(#p206239bbfb)" style="fill: none; stroke: #e2e8f0; stroke-width: 0.7; stroke-linecap: square"/>
     </g>
     <g id="line2d_26">
      <g>
       <use xlink:href="#m27e6ce2fef" x="81" y="158.044061" style="fill: #334155; stroke: #334155; stroke-width: 0.8"/>
      </g>
     </g>
     <g id="text_15">
      <text style="font-size: 11px; font-family: 'DejaVu Sans'; text-anchor: end; fill: #334155" x="74" y="162.222772" transform="rotate(-0 74 162.222772)">1200</text>
     </g>
    </g>
    <g id="text_16">
     <text style="font-weight: 700; font-size: 11px; font-family: 'DejaVu Sans'; text-anchor: middle; fill: #334155" x="39.362422" y="271.728" transform="rotate(-90 39.362422 271.728)">Number of tests</text>
    </g>
   </g>
   <g id="FillBetweenPolyCollection_1">
    <defs>
     <path id="m42ddd49fa1" d="M 125.181818 -73.44
L 125.181818 -316.068982
L 469.148153 -343.386253
L 576.493648 -344.891929
L 614.529399 -345.967412
L 976.436485 -347.688185
L 1008.818182 -348.548571
L 1008.818182 -73.44
L 1008.818182 -73.44
L 976.436485 -73.44
L 614.529399 -73.44
L 576.493648 -73.44
L 469.148153 -73.44
L 125.181818 -73.44
z
" style="stroke: #0868d4; stroke-opacity: 0.07"/>
    </defs>
    <g clip-path="url(#p206239bbfb)">
     <use xlink:href="#m42ddd49fa1" x="0" y="489.6" style="fill: #0868d4; fill-opacity: 0.07; stroke: #0868d4; stroke-opacity: 0.07"/>
    </g>
   </g>
   <g id="FillBetweenPolyCollection_2">
    <defs>
     <path id="m0aeba37096" d="M 125.181818 -73.44
L 125.181818 -313.918016
L 469.148153 -339.299417
L 576.493648 -340.805093
L 614.529399 -341.880576
L 976.436485 -343.601349
L 1008.818182 -344.461736
L 1008.818182 -73.44
L 1008.818182 -73.44
L 976.436485 -73.44
L 614.529399 -73.44
L 576.493648 -73.44
L 469.148153 -73.44
L 125.181818 -73.44
z
" style="stroke: #00ac7b; stroke-opacity: 0.07"/>
    </defs>
    <g clip-path="url(#p206239bbfb)">
     <use xlink:href="#m0aeba37096" x="0" y="489.6" style="fill: #00ac7b; fill-opacity: 0.07; stroke: #00ac7b; stroke-opacity: 0.07"/>
    </g>
   </g>
   <g id="FillBetweenPolyCollection_3">
    <defs>
     <path id="m967b499cd2" d="M 125.181818 -73.44
L 125.181818 -73.44
L 469.148153 -73.44
L 576.493648 -73.44
L 614.529399 -73.44
L 976.436485 -73.44
L 1008.818182 -73.44
L 1008.818182 -73.44
L 1008.818182 -73.44
L 976.436485 -73.44
L 614.529399 -73.44
L 576.493648 -73.44
L 469.148153 -73.44
L 125.181818 -73.44
z
" style="stroke: #ef4444; stroke-opacity: 0.07"/>
    </defs>
    <g clip-path="url(#p206239bbfb)">
     <use xlink:href="#m967b499cd2" x="0" y="489.6" style="fill: #ef4444; fill-opacity: 0.07; stroke: #ef4444; stroke-opacity: 0.07"/>
    </g>
   </g>
   <g id="FillBetweenPolyCollection_4">
    <defs>
     <path id="m2f2b16f3d3" d="M 125.181818 -73.44
L 125.181818 -73.44
L 469.148153 -73.44
L 576.493648 -73.44
L 614.529399 -73.44
L 976.436485 -73.44
L 1008.818182 -73.44
L 1008.818182 -73.44
L 1008.818182 -73.44
L 976.436485 -73.44
L 614.529399 -73.44
L 576.493648 -73.44
L 469.148153 -73.44
L 125.181818 -73.44
z
" style="stroke: #e89200; stroke-opacity: 0.07"/>
    </defs>
    <g clip-path="url(#p206239bbfb)">
     <use xlink:href="#m2f2b16f3d3" x="0" y="489.6" style="fill: #e89200; fill-opacity: 0.07; stroke: #e89200; stroke-opacity: 0.07"/>
    </g>
   </g>
   <g id="FillBetweenPolyCollection_5">
    <defs>
     <path id="m045a51fce7" d="M 125.181818 -73.44
L 125.181818 -75.590966
L 469.148153 -77.526836
L 576.493648 -77.526836
L 614.529399 -77.526836
L 976.436485 -77.526836
L 1008.818182 -77.526836
L 1008.818182 -73.44
L 1008.818182 -73.44
L 976.436485 -73.44
L 614.529399 -73.44
L 576.493648 -73.44
L 469.148153 -73.44
L 125.181818 -73.44
z
" style="stroke: #8b5cf6; stroke-opacity: 0.07"/>
    </defs>
    <g clip-path="url(#p206239bbfb)">
     <use xlink:href="#m045a51fce7" x="0" y="489.6" style="fill: #8b5cf6; fill-opacity: 0.07; stroke: #8b5cf6; stroke-opacity: 0.07"/>
    </g>
   </g>
   <g id="line2d_27">
    <path d="M 125.181818 173.531018
L 469.148153 146.213747
L 576.493648 144.708071
L 614.529399 143.632588
L 976.436485 141.911815
L 1008.818182 141.051429
" clip-path="url(#p206239bbfb)" style="fill: none; stroke: #0868d4; stroke-width: 2.3; stroke-linecap: square"/>
    <defs>
     <path id="m8b5f32f309" d="M 0 2
C 0.530406 2 1.03916 1.789267 1.414214 1.414214
C 1.789267 1.03916 2 0.530406 2 0
C 2 -0.530406 1.789267 -1.03916 1.414214 -1.414214
C 1.03916 -1.789267 0.530406 -2 0 -2
C -0.530406 -2 -1.03916 -1.789267 -1.414214 -1.414214
C -1.789267 -1.03916 -2 -0.530406 -2 0
C -2 0.530406 -1.789267 1.03916 -1.414214 1.414214
C -1.03916 1.789267 -0.530406 2 0 2
z
" style="stroke: #0868d4"/>
    </defs>
    <g clip-path="url(#p206239bbfb)">
     <use xlink:href="#m8b5f32f309" x="125.181818" y="173.531018" style="fill: #0868d4; stroke: #0868d4"/>
     <use xlink:href="#m8b5f32f309" x="469.148153" y="146.213747" style="fill: #0868d4; stroke: #0868d4"/>
     <use xlink:href="#m8b5f32f309" x="576.493648" y="144.708071" style="fill: #0868d4; stroke: #0868d4"/>
     <use xlink:href="#m8b5f32f309" x="614.529399" y="143.632588" style="fill: #0868d4; stroke: #0868d4"/>
     <use xlink:href="#m8b5f32f309" x="976.436485" y="141.911815" style="fill: #0868d4; stroke: #0868d4"/>
     <use xlink:href="#m8b5f32f309" x="1008.818182" y="141.051429" style="fill: #0868d4; stroke: #0868d4"/>
    </g>
   </g>
   <g id="line2d_28">
    <path d="M 125.181818 175.681984
L 469.148153 150.300583
L 576.493648 148.794907
L 614.529399 147.719424
L 976.436485 145.998651
L 1008.818182 145.138264
" clip-path="url(#p206239bbfb)" style="fill: none; stroke: #00ac7b; stroke-width: 2.3; stroke-linecap: square"/>
    <defs>
     <path id="m2eafe451bd" d="M 0 2
C 0.530406 2 1.03916 1.789267 1.414214 1.414214
C 1.789267 1.03916 2 0.530406 2 0
C 2 -0.530406 1.789267 -1.03916 1.414214 -1.414214
C 1.03916 -1.789267 0.530406 -2 0 -2
C -0.530406 -2 -1.03916 -1.789267 -1.414214 -1.414214
C -1.789267 -1.03916 -2 -0.530406 -2 0
C -2 0.530406 -1.789267 1.03916 -1.414214 1.414214
C -1.03916 1.789267 -0.530406 2 0 2
z
" style="stroke: #00ac7b"/>
    </defs>
    <g clip-path="url(#p206239bbfb)">
     <use xlink:href="#m2eafe451bd" x="125.181818" y="175.681984" style="fill: #00ac7b; stroke: #00ac7b"/>
     <use xlink:href="#m2eafe451bd" x="469.148153" y="150.300583" style="fill: #00ac7b; stroke: #00ac7b"/>
     <use xlink:href="#m2eafe451bd" x="576.493648" y="148.794907" style="fill: #00ac7b; stroke: #00ac7b"/>
     <use xlink:href="#m2eafe451bd" x="614.529399" y="147.719424" style="fill: #00ac7b; stroke: #00ac7b"/>
     <use xlink:href="#m2eafe451bd" x="976.436485" y="145.998651" style="fill: #00ac7b; stroke: #00ac7b"/>
     <use xlink:href="#m2eafe451bd" x="1008.818182" y="145.138264" style="fill: #00ac7b; stroke: #00ac7b"/>
    </g>
   </g>
   <g id="line2d_29">
    <path d="M 125.181818 416.16
L 469.148153 416.16
L 576.493648 416.16
L 614.529399 416.16
L 976.436485 416.16
L 1008.818182 416.16
" clip-path="url(#p206239bbfb)" style="fill: none; stroke: #ef4444; stroke-width: 2.3; stroke-linecap: square"/>
    <defs>
     <path id="m728b91193a" d="M 0 2
C 0.530406 2 1.03916 1.789267 1.414214 1.414214
C 1.789267 1.03916 2 0.530406 2 0
C 2 -0.530406 1.789267 -1.03916 1.414214 -1.414214
C 1.03916 -1.789267 0.530406 -2 0 -2
C -0.530406 -2 -1.03916 -1.789267 -1.414214 -1.414214
C -1.789267 -1.03916 -2 -0.530406 -2 0
C -2 0.530406 -1.789267 1.03916 -1.414214 1.414214
C -1.03916 1.789267 -0.530406 2 0 2
z
" style="stroke: #ef4444"/>
    </defs>
    <g clip-path="url(#p206239bbfb)">
     <use xlink:href="#m728b91193a" x="125.181818" y="416.16" style="fill: #ef4444; stroke: #ef4444"/>
     <use xlink:href="#m728b91193a" x="469.148153" y="416.16" style="fill: #ef4444; stroke: #ef4444"/>
     <use xlink:href="#m728b91193a" x="576.493648" y="416.16" style="fill: #ef4444; stroke: #ef4444"/>
     <use xlink:href="#m728b91193a" x="614.529399" y="416.16" style="fill: #ef4444; stroke: #ef4444"/>
     <use xlink:href="#m728b91193a" x="976.436485" y="416.16" style="fill: #ef4444; stroke: #ef4444"/>
     <use xlink:href="#m728b91193a" x="1008.818182" y="416.16" style="fill: #ef4444; stroke: #ef4444"/>
    </g>
   </g>
   <g id="line2d_30">
    <path d="M 125.181818 416.16
L 469.148153 416.16
L 576.493648 416.16
L 614.529399 416.16
L 976.436485 416.16
L 1008.818182 416.16
" clip-path="url(#p206239bbfb)" style="fill: none; stroke: #e89200; stroke-width: 2.3; stroke-linecap: square"/>
    <defs>
     <path id="m0fdd77d4a7" d="M 0 2
C 0.530406 2 1.03916 1.789267 1.414214 1.414214
C 1.789267 1.03916 2 0.530406 2 0
C 2 -0.530406 1.789267 -1.03916 1.414214 -1.414214
C 1.03916 -1.789267 0.530406 -2 0 -2
C -0.530406 -2 -1.03916 -1.789267 -1.414214 -1.414214
C -1.789267 -1.03916 -2 -0.530406 -2 0
C -2 0.530406 -1.789267 1.03916 -1.414214 1.414214
C -1.03916 1.789267 -0.530406 2 0 2
z
" style="stroke: #e89200"/>
    </defs>
    <g clip-path="url(#p206239bbfb)">
     <use xlink:href="#m0fdd77d4a7" x="125.181818" y="416.16" style="fill: #e89200; stroke: #e89200"/>
     <use xlink:href="#m0fdd77d4a7" x="469.148153" y="416.16" style="fill: #e89200; stroke: #e89200"/>
     <use xlink:href="#m0fdd77d4a7" x="576.493648" y="416.16" style="fill: #e89200; stroke: #e89200"/>
     <use xlink:href="#m0fdd77d4a7" x="614.529399" y="416.16" style="fill: #e89200; stroke: #e89200"/>
     <use xlink:href="#m0fdd77d4a7" x="976.436485" y="416.16" style="fill: #e89200; stroke: #e89200"/>
     <use xlink:href="#m0fdd77d4a7" x="1008.818182" y="416.16" style="fill: #e89200; stroke: #e89200"/>
    </g>
   </g>
   <g id="line2d_31">
    <path d="M 125.181818 414.009034
L 469.148153 412.073164
L 576.493648 412.073164
L 614.529399 412.073164
L 976.436485 412.073164
L 1008.818182 412.073164
" clip-path="url(#p206239bbfb)" style="fill: none; stroke: #8b5cf6; stroke-width: 2.3; stroke-linecap: square"/>
    <defs>
     <path id="m815d9a53f7" d="M 0 2
C 0.530406 2 1.03916 1.789267 1.414214 1.414214
C 1.789267 1.03916 2 0.530406 2 0
C 2 -0.530406 1.789267 -1.03916 1.414214 -1.414214
C 1.03916 -1.789267 0.530406 -2 0 -2
C -0.530406 -2 -1.03916 -1.789267 -1.414214 -1.414214
C -1.789267 -1.03916 -2 -0.530406 -2 0
C -2 0.530406 -1.789267 1.03916 -1.414214 1.414214
C -1.03916 1.789267 -0.530406 2 0 2
z
" style="stroke: #8b5cf6"/>
    </defs>
    <g clip-path="url(#p206239bbfb)">
     <use xlink:href="#m815d9a53f7" x="125.181818" y="414.009034" style="fill: #8b5cf6; stroke: #8b5cf6"/>
     <use xlink:href="#m815d9a53f7" x="469.148153" y="412.073164" style="fill: #8b5cf6; stroke: #8b5cf6"/>
     <use xlink:href="#m815d9a53f7" x="576.493648" y="412.073164" style="fill: #8b5cf6; stroke: #8b5cf6"/>
     <use xlink:href="#m815d9a53f7" x="614.529399" y="412.073164" style="fill: #8b5cf6; stroke: #8b5cf6"/>
     <use xlink:href="#m815d9a53f7" x="976.436485" y="412.073164" style="fill: #8b5cf6; stroke: #8b5cf6"/>
     <use xlink:href="#m815d9a53f7" x="1008.818182" y="412.073164" style="fill: #8b5cf6; stroke: #8b5cf6"/>
    </g>
   </g>
   <g id="patch_3">
    <path d="M 81 416.16
L 81 127.296
" style="fill: none; stroke: #cbd5e1; stroke-width: 0.8; stroke-linejoin: miter; stroke-linecap: square"/>
   </g>
   <g id="patch_4">
    <path d="M 1053 416.16
L 1053 127.296
" style="fill: none; stroke: #cbd5e1; stroke-width: 0.8; stroke-linejoin: miter; stroke-linecap: square"/>
   </g>
   <g id="patch_5">
    <path d="M 81 416.16
L 1053 416.16
" style="fill: none; stroke: #cbd5e1; stroke-width: 0.8; stroke-linejoin: miter; stroke-linecap: square"/>
   </g>
   <g id="patch_6">
    <path d="M 81 127.296
L 1053 127.296
" style="fill: none; stroke: #cbd5e1; stroke-width: 0.8; stroke-linejoin: miter; stroke-linecap: square"/>
   </g>
   <g id="legend_1">
    <g id="line2d_32">
     <path d="M 90.9 106.570462
L 101.9 106.570462
L 112.9 106.570462
" style="fill: none; stroke: #0868d4; stroke-width: 2.3; stroke-linecap: square"/>
     <g>
      <use xlink:href="#m8b5f32f309" x="101.9" y="106.570462" style="fill: #0868d4; stroke: #0868d4"/>
     </g>
    </g>
    <g id="text_17">
     <text style="font-size: 11px; font-family: 'DejaVu Sans'; text-anchor: start; fill: #1e293b" x="121.7" y="110.420462" transform="rotate(-0 121.7 110.420462)">Total</text>
    </g>
    <g id="line2d_33">
     <path d="M 169.390156 106.570462
L 180.390156 106.570462
L 191.390156 106.570462
" style="fill: none; stroke: #00ac7b; stroke-width: 2.3; stroke-linecap: square"/>
     <g>
      <use xlink:href="#m2eafe451bd" x="180.390156" y="106.570462" style="fill: #00ac7b; stroke: #00ac7b"/>
     </g>
    </g>
    <g id="text_18">
     <text style="font-size: 11px; font-family: 'DejaVu Sans'; text-anchor: start; fill: #1e293b" x="200.190156" y="110.420462" transform="rotate(-0 200.190156 110.420462)">Pass</text>
    </g>
    <g id="line2d_34">
     <path d="M 246.531094 106.570462
L 257.531094 106.570462
L 268.531094 106.570462
" style="fill: none; stroke: #ef4444; stroke-width: 2.3; stroke-linecap: square"/>
     <g>
      <use xlink:href="#m728b91193a" x="257.531094" y="106.570462" style="fill: #ef4444; stroke: #ef4444"/>
     </g>
    </g>
    <g id="text_19">
     <text style="font-size: 11px; font-family: 'DejaVu Sans'; text-anchor: start; fill: #1e293b" x="277.331094" y="110.420462" transform="rotate(-0 277.331094 110.420462)">Fail</text>
    </g>
    <g id="line2d_35">
     <path d="M 317.501719 106.570462
L 328.501719 106.570462
L 339.501719 106.570462
" style="fill: none; stroke: #e89200; stroke-width: 2.3; stroke-linecap: square"/>
     <g>
      <use xlink:href="#m0fdd77d4a7" x="328.501719" y="106.570462" style="fill: #e89200; stroke: #e89200"/>
     </g>
    </g>
    <g id="text_20">
     <text style="font-size: 11px; font-family: 'DejaVu Sans'; text-anchor: start; fill: #1e293b" x="348.301719" y="110.420462" transform="rotate(-0 348.301719 110.420462)">Error</text>
    </g>
    <g id="line2d_36">
     <path d="M 397.114219 106.570462
L 408.114219 106.570462
L 419.114219 106.570462
" style="fill: none; stroke: #8b5cf6; stroke-width: 2.3; stroke-linecap: square"/>
     <g>
      <use xlink:href="#m815d9a53f7" x="408.114219" y="106.570462" style="fill: #8b5cf6; stroke: #8b5cf6"/>
     </g>
    </g>
    <g id="text_21">
     <text style="font-size: 11px; font-family: 'DejaVu Sans'; text-anchor: start; fill: #1e293b" x="427.914219" y="110.420462" transform="rotate(-0 427.914219 110.420462)">Skip</text>
    </g>
   </g>
  </g>
  <g id="text_22">
   <text style="font-weight: 700; font-size: 25px; font-family: 'DejaVu Sans'; text-anchor: start; fill: #1e293b" x="81" y="29.376" transform="rotate(-0 81 29.376)">Capntproto — Cargo Test Results</text>
  </g>
  <g id="text_23">
   <text style="font-size: 12px; font-family: 'DejaVu Sans'; text-anchor: start; fill: #64748b" x="81" y="56.304" transform="rotate(-0 81 56.304)">Cargo libtest results · selected partition · counts per CI run · UTC</text>
  </g>
  <g id="text_24">
   <g id="patch_7">
    <path d="M 920.959062 100.504328
L 1047.6 100.504328
Q 1054.2 100.504328 1054.2 93.904328
L 1054.2 14.688
Q 1054.2 8.088 1047.6 8.088
L 920.959062 8.088
Q 914.359062 8.088 914.359062 14.688
L 914.359062 93.904328
Q 914.359062 100.504328 920.959062 100.504328
z
" style="fill: #ffffff; stroke: #cbd5e1; stroke-linejoin: miter"/>
   </g>
   <text style="font-size: 11px; font-family: 'DejaVu Sans'; fill: #1e293b" transform="translate(920.959062 24.147355)">Latest recorded counts</text>
   <text style="font-size: 11px; font-family: 'DejaVu Sans'; fill: #1e293b" transform="translate(937.543281 37.349504)">Pass: 1,260 (98.5%)</text>
   <text style="font-size: 11px; font-family: 'DejaVu Sans'; fill: #1e293b" transform="translate(975.204531 50.552512)">Fail: 0 (0.0%)</text>
   <text style="font-size: 11px; font-family: 'DejaVu Sans'; fill: #1e293b" transform="translate(966.755156 63.75466)">Error: 0 (0.0%)</text>
   <text style="font-size: 11px; font-family: 'DejaVu Sans'; fill: #1e293b" transform="translate(962.984219 76.957668)">Skip: 19 (1.5%)</text>
   <text style="font-size: 11px; font-family: 'DejaVu Sans'; fill: #1e293b" transform="translate(983.217344 90.160676)">Total: 1,279</text>
  </g>
  <g id="text_25">
   <text style="font-size: 10px; font-family: 'DejaVu Sans'; text-anchor: start; fill: #64748b" x="81" y="472.464" transform="rotate(-0 81 472.464)">Dotted lines: failed/incomplete workspace command. Error = announced tests without a terminal result.</text>
  </g>
 </g>
 <defs>
  <clipPath id="p206239bbfb">
   <rect x="81" y="127.296" width="972" height="288.864"/>
  </clipPath>
 </defs>
</svg>
