<svg xmlns="http://www.w3.org/2000/svg" width="1400" height="1056" viewBox="0 0 1400 1056" role="img" aria-labelledby="title">
<title id="title">LLVM lines: current versus reviewed baseline</title>
<rect width="1400" height="1056" fill="white"/>
<g font-family="DejaVu Sans, sans-serif">
<text x="35.00" y="44.00" font-size="27" fill="#1e293b">LLVM lines: current versus reviewed baseline</text>
<text x="35.00" y="78.00" font-size="14" fill="#64748b">Gray: reviewed baseline. Blue: current run. N&#x2F;A: no mapped counters; never treated as 0% or 100%.</text>
<text x="35.00" y="122.00" font-size="20" fill="#1e293b">Source groups (different groups cover different code)</text>
<text x="35.00" y="153.00" font-size="13" fill="#334155">async framing &#x2F; baseline</text>
<rect x="600.00" y="138.00" width="584.29" height="23" fill="#0868d4"/>
<text x="1190.29" y="155.00" font-size="13" fill="#334155">94.57</text>
<text x="35.00" y="195.00" font-size="13" fill="#334155">async framing &#x2F; current</text>
<rect x="600.00" y="180.00" width="584.89" height="23" fill="#00ac7b"/>
<text x="1190.89" y="197.00" font-size="13" fill="#334155">94.67</text>
<text x="35.00" y="237.00" font-size="13" fill="#334155">capability rpc &#x2F; baseline</text>
<rect x="600.00" y="222.00" width="559.88" height="23" fill="#ef4444"/>
<text x="1165.88" y="239.00" font-size="13" fill="#334155">90.62</text>
<text x="35.00" y="279.00" font-size="13" fill="#334155">capability rpc &#x2F; current</text>
<rect x="600.00" y="264.00" width="560.02" height="23" fill="#e89200"/>
<text x="1166.02" y="281.00" font-size="13" fill="#334155">90.64</text>
<text x="35.00" y="321.00" font-size="13" fill="#334155">optional compatibility &#x2F; baseline</text>
<rect x="600.00" y="306.00" width="556.01" height="23" fill="#8b5cf6"/>
<text x="1162.01" y="323.00" font-size="13" fill="#334155">90.00</text>
<text x="35.00" y="363.00" font-size="13" fill="#334155">optional compatibility &#x2F; current</text>
<rect x="600.00" y="348.00" width="556.02" height="23" fill="#0868d4"/>
<text x="1162.02" y="365.00" font-size="13" fill="#334155">90.00</text>
<text x="35.00" y="405.00" font-size="13" fill="#334155">runtime &#x2F; baseline</text>
<rect x="600.00" y="390.00" width="515.36" height="23" fill="#00ac7b"/>
<text x="1121.36" y="407.00" font-size="13" fill="#334155">83.42</text>
<text x="35.00" y="447.00" font-size="13" fill="#334155">runtime &#x2F; current</text>
<rect x="600.00" y="432.00" width="516.28" height="23" fill="#ef4444"/>
<text x="1122.28" y="449.00" font-size="13" fill="#334155">83.57</text>
<text x="35.00" y="489.00" font-size="13" fill="#334155">rust codegen &#x2F; baseline</text>
<rect x="600.00" y="474.00" width="567.73" height="23" fill="#e89200"/>
<text x="1173.73" y="491.00" font-size="13" fill="#334155">91.89</text>
<text x="35.00" y="531.00" font-size="13" fill="#334155">rust codegen &#x2F; current</text>
<rect x="600.00" y="516.00" width="567.73" height="23" fill="#8b5cf6"/>
<text x="1173.73" y="533.00" font-size="13" fill="#334155">91.89</text>
<text x="35.00" y="573.00" font-size="13" fill="#334155">schema compiler &#x2F; baseline</text>
<rect x="600.00" y="558.00" width="600.00" height="23" fill="#0868d4"/>
<text x="1206.00" y="575.00" font-size="13" fill="#334155">97.12</text>
<text x="35.00" y="615.00" font-size="13" fill="#334155">schema compiler &#x2F; current</text>
<rect x="600.00" y="600.00" width="600.00" height="23" fill="#00ac7b"/>
<text x="1206.00" y="617.00" font-size="13" fill="#334155">97.12</text>
<text x="35.00" y="657.00" font-size="13" fill="#334155">tests and verification &#x2F; baseline</text>
<rect x="600.00" y="642.00" width="476.42" height="23" fill="#ef4444"/>
<text x="1082.42" y="659.00" font-size="13" fill="#334155">77.11</text>
<text x="35.00" y="699.00" font-size="13" fill="#334155">tests and verification &#x2F; current</text>
<rect x="600.00" y="684.00" width="476.65" height="23" fill="#e89200"/>
<text x="1082.65" y="701.00" font-size="13" fill="#334155">77.15</text>
<text x="35.00" y="741.00" font-size="13" fill="#334155">tools fuzz examples benchmarks &#x2F; baseline</text>
<rect x="600.00" y="726.00" width="440.28" height="23" fill="#8b5cf6"/>
<text x="1046.28" y="743.00" font-size="13" fill="#334155">71.26</text>
<text x="35.00" y="783.00" font-size="13" fill="#334155">tools fuzz examples benchmarks &#x2F; current</text>
<rect x="600.00" y="768.00" width="440.86" height="23" fill="#0868d4"/>
<text x="1046.86" y="785.00" font-size="13" fill="#334155">71.36</text>
<text x="35.00" y="825.00" font-size="13" fill="#334155">wire runtime &#x2F; baseline</text>
<rect x="600.00" y="810.00" width="527.25" height="23" fill="#00ac7b"/>
<text x="1133.25" y="827.00" font-size="13" fill="#334155">85.34</text>
<text x="35.00" y="867.00" font-size="13" fill="#334155">wire runtime &#x2F; current</text>
<rect x="600.00" y="852.00" width="527.25" height="23" fill="#ef4444"/>
<text x="1133.25" y="869.00" font-size="13" fill="#334155">85.34</text>
<text x="600.00" y="914.00" font-size="13" fill="#64748b">Coverage (%) - higher is better</text>
<text x="35.00" y="978.00" font-size="13" fill="#64748b">Measured 2026-10-07T02:35:55Z | commit d2b163dbf50c</text>
</g>
</svg>
