<svg xmlns="http://www.w3.org/2000/svg" width="1400" height="1056" viewBox="0 0 1400 1056" role="img" aria-labelledby="title">
<title id="title">LLVM branches: current versus reviewed baseline</title>
<rect width="1400" height="1056" fill="white"/>
<g font-family="DejaVu Sans, sans-serif">
<text x="35.00" y="44.00" font-size="27" fill="#1e293b">LLVM branches: current versus reviewed baseline</text>
<text x="35.00" y="78.00" font-size="14" fill="#64748b">Gray: reviewed baseline. Blue: current run. N&#x2F;A: no mapped counters; never treated as 0% or 100%.</text>
<text x="35.00" y="122.00" font-size="20" fill="#1e293b">Source groups (different groups cover different code)</text>
<text x="35.00" y="153.00" font-size="13" fill="#334155">async framing &#x2F; baseline</text>
<rect x="600.00" y="138.00" width="600.00" height="23" fill="#0868d4"/>
<text x="1206.00" y="155.00" font-size="13" fill="#334155">95.19</text>
<text x="35.00" y="195.00" font-size="13" fill="#334155">async framing &#x2F; current</text>
<rect x="600.00" y="180.00" width="600.00" height="23" fill="#00ac7b"/>
<text x="1206.00" y="197.00" font-size="13" fill="#334155">95.19</text>
<text x="35.00" y="237.00" font-size="13" fill="#334155">capability rpc &#x2F; baseline</text>
<rect x="600.00" y="222.00" width="471.94" height="23" fill="#ef4444"/>
<text x="1077.94" y="239.00" font-size="13" fill="#334155">74.88</text>
<text x="35.00" y="279.00" font-size="13" fill="#334155">capability rpc &#x2F; current</text>
<rect x="600.00" y="264.00" width="471.94" height="23" fill="#e89200"/>
<text x="1077.94" y="281.00" font-size="13" fill="#334155">74.88</text>
<text x="35.00" y="321.00" font-size="13" fill="#334155">optional compatibility &#x2F; baseline</text>
<rect x="600.00" y="306.00" width="462.96" height="23" fill="#8b5cf6"/>
<text x="1068.96" y="323.00" font-size="13" fill="#334155">73.45</text>
<text x="35.00" y="363.00" font-size="13" fill="#334155">optional compatibility &#x2F; current</text>
<rect x="600.00" y="348.00" width="462.96" height="23" fill="#0868d4"/>
<text x="1068.96" y="365.00" font-size="13" fill="#334155">73.45</text>
<text x="35.00" y="405.00" font-size="13" fill="#334155">runtime &#x2F; baseline</text>
<rect x="600.00" y="390.00" width="462.35" height="23" fill="#00ac7b"/>
<text x="1068.35" y="407.00" font-size="13" fill="#334155">73.35</text>
<text x="35.00" y="447.00" font-size="13" fill="#334155">runtime &#x2F; current</text>
<rect x="600.00" y="432.00" width="463.10" height="23" fill="#ef4444"/>
<text x="1069.10" y="449.00" font-size="13" fill="#334155">73.47</text>
<text x="35.00" y="489.00" font-size="13" fill="#334155">rust codegen &#x2F; baseline</text>
<rect x="600.00" y="474.00" width="554.27" height="23" fill="#e89200"/>
<text x="1160.27" y="491.00" font-size="13" fill="#334155">87.94</text>
<text x="35.00" y="531.00" font-size="13" fill="#334155">rust codegen &#x2F; current</text>
<rect x="600.00" y="516.00" width="554.27" height="23" fill="#8b5cf6"/>
<text x="1160.27" y="533.00" font-size="13" fill="#334155">87.94</text>
<text x="35.00" y="573.00" font-size="13" fill="#334155">schema compiler &#x2F; baseline</text>
<rect x="600.00" y="558.00" width="524.93" height="23" fill="#0868d4"/>
<text x="1130.93" y="575.00" font-size="13" fill="#334155">83.28</text>
<text x="35.00" y="615.00" font-size="13" fill="#334155">schema compiler &#x2F; current</text>
<rect x="600.00" y="600.00" width="524.93" height="23" fill="#00ac7b"/>
<text x="1130.93" y="617.00" font-size="13" fill="#334155">83.28</text>
<text x="35.00" y="657.00" font-size="13" fill="#334155">tests and verification &#x2F; baseline</text>
<rect x="600.00" y="642.00" width="348.61" height="23" fill="#ef4444"/>
<text x="954.61" y="659.00" font-size="13" fill="#334155">55.31</text>
<text x="35.00" y="699.00" font-size="13" fill="#334155">tests and verification &#x2F; current</text>
<rect x="600.00" y="684.00" width="348.61" height="23" fill="#e89200"/>
<text x="954.61" y="701.00" font-size="13" fill="#334155">55.31</text>
<text x="35.00" y="741.00" font-size="13" fill="#334155">tools fuzz examples benchmarks &#x2F; baseline</text>
<rect x="600.00" y="726.00" width="405.44" height="23" fill="#8b5cf6"/>
<text x="1011.44" y="743.00" font-size="13" fill="#334155">64.32</text>
<text x="35.00" y="783.00" font-size="13" fill="#334155">tools fuzz examples benchmarks &#x2F; current</text>
<rect x="600.00" y="768.00" width="405.44" height="23" fill="#0868d4"/>
<text x="1011.44" y="785.00" font-size="13" fill="#334155">64.32</text>
<text x="35.00" y="825.00" font-size="13" fill="#334155">wire runtime &#x2F; baseline</text>
<rect x="600.00" y="810.00" width="490.27" height="23" fill="#00ac7b"/>
<text x="1096.27" y="827.00" font-size="13" fill="#334155">77.78</text>
<text x="35.00" y="867.00" font-size="13" fill="#334155">wire runtime &#x2F; current</text>
<rect x="600.00" y="852.00" width="490.27" height="23" fill="#ef4444"/>
<text x="1096.27" y="869.00" font-size="13" fill="#334155">77.78</text>
<text x="600.00" y="914.00" font-size="13" fill="#64748b">Coverage (%) - higher is better</text>
<text x="35.00" y="978.00" font-size="13" fill="#64748b">Measured 2026-10-07T02:35:55Z | commit d2b163dbf50c</text>
</g>
</svg>
