<svg xmlns="http://www.w3.org/2000/svg" width="1400" height="1272" viewBox="0 0 1400 1272" role="img" aria-labelledby="title">
<title id="title">Median latency difference from Capntproto</title>
<rect width="1400" height="1272" fill="white"/>
<g font-family="DejaVu Sans, sans-serif">
<text x="35.00" y="44.00" font-size="27" fill="#1e293b">Median latency difference from Capntproto</text>
<text x="35.00" y="78.00" font-size="14" fill="#64748b">Each panel uses a linear axis including zero. Native is encrypted; other baselines are plaintext.</text>
<text x="35.00" y="122.00" font-size="20" fill="#1e293b">0 byte payload</text>
<text x="35.00" y="153.00" font-size="13" fill="#334155">Capntproto &#x2F; Native</text>
<rect x="1092.93" y="138.00" width="0.00" height="23" fill="#0868d4"/>
<text x="1098.93" y="155.00" font-size="13" fill="#334155">+0.0%</text>
<text x="35.00" y="195.00" font-size="13" fill="#334155">Cap&#x27;n Proto C++</text>
<rect x="828.86" y="180.00" width="264.07" height="23" fill="#00ac7b"/>
<text x="1098.93" y="197.00" font-size="13" fill="#334155">-30.6%</text>
<text x="35.00" y="237.00" font-size="13" fill="#334155">gRPC (tonic)</text>
<rect x="1092.93" y="222.00" width="120.40" height="23" fill="#ef4444"/>
<text x="1219.33" y="239.00" font-size="13" fill="#334155">+14.0%</text>
<text x="35.00" y="279.00" font-size="13" fill="#334155">WebSockets</text>
<rect x="680.00" y="264.00" width="412.93" height="23" fill="#e89200"/>
<text x="1098.93" y="281.00" font-size="13" fill="#334155">-47.9%</text>
<text x="600.00" y="326.00" font-size="13" fill="#64748b">Percent difference - negative is less latency</text>
<text x="35.00" y="390.00" font-size="20" fill="#1e293b">64 byte payload</text>
<text x="35.00" y="421.00" font-size="13" fill="#334155">Capntproto &#x2F; Native</text>
<rect x="1181.25" y="406.00" width="0.00" height="23" fill="#0868d4"/>
<text x="1187.25" y="423.00" font-size="13" fill="#334155">+0.0%</text>
<text x="35.00" y="463.00" font-size="13" fill="#334155">Cap&#x27;n Proto C++</text>
<rect x="837.24" y="448.00" width="344.01" height="23" fill="#00ac7b"/>
<text x="1187.25" y="465.00" font-size="13" fill="#334155">-35.6%</text>
<text x="35.00" y="505.00" font-size="13" fill="#334155">gRPC (tonic)</text>
<rect x="1181.25" y="490.00" width="32.08" height="23" fill="#ef4444"/>
<text x="1219.33" y="507.00" font-size="13" fill="#334155">+3.3%</text>
<text x="35.00" y="547.00" font-size="13" fill="#334155">WebSockets</text>
<rect x="680.00" y="532.00" width="501.25" height="23" fill="#e89200"/>
<text x="1187.25" y="549.00" font-size="13" fill="#334155">-51.9%</text>
<text x="600.00" y="594.00" font-size="13" fill="#64748b">Percent difference - negative is less latency</text>
<text x="35.00" y="658.00" font-size="20" fill="#1e293b">1024 byte payload</text>
<text x="35.00" y="689.00" font-size="13" fill="#334155">Capntproto &#x2F; Native</text>
<rect x="1098.02" y="674.00" width="0.00" height="23" fill="#0868d4"/>
<text x="1104.02" y="691.00" font-size="13" fill="#334155">+0.0%</text>
<text x="35.00" y="731.00" font-size="13" fill="#334155">Cap&#x27;n Proto C++</text>
<rect x="842.70" y="716.00" width="255.33" height="23" fill="#00ac7b"/>
<text x="1104.02" y="733.00" font-size="13" fill="#334155">-31.6%</text>
<text x="35.00" y="773.00" font-size="13" fill="#334155">gRPC (tonic)</text>
<rect x="1098.02" y="758.00" width="115.31" height="23" fill="#ef4444"/>
<text x="1219.33" y="775.00" font-size="13" fill="#334155">+14.3%</text>
<text x="35.00" y="815.00" font-size="13" fill="#334155">WebSockets</text>
<rect x="680.00" y="800.00" width="418.02" height="23" fill="#e89200"/>
<text x="1104.02" y="817.00" font-size="13" fill="#334155">-51.7%</text>
<text x="600.00" y="862.00" font-size="13" fill="#64748b">Percent difference - negative is less latency</text>
<text x="35.00" y="926.00" font-size="20" fill="#1e293b">65536 byte payload</text>
<text x="35.00" y="957.00" font-size="13" fill="#334155">Capntproto &#x2F; Native</text>
<rect x="1213.33" y="942.00" width="0.00" height="23" fill="#0868d4"/>
<text x="1219.33" y="959.00" font-size="13" fill="#334155">+0.0%</text>
<text x="35.00" y="999.00" font-size="13" fill="#334155">Cap&#x27;n Proto C++</text>
<rect x="704.88" y="984.00" width="508.45" height="23" fill="#00ac7b"/>
<text x="1219.33" y="1001.00" font-size="13" fill="#334155">-60.7%</text>
<text x="35.00" y="1041.00" font-size="13" fill="#334155">gRPC (tonic)</text>
<rect x="1049.38" y="1026.00" width="163.96" height="23" fill="#ef4444"/>
<text x="1219.33" y="1043.00" font-size="13" fill="#334155">-19.6%</text>
<text x="35.00" y="1083.00" font-size="13" fill="#334155">WebSockets</text>
<rect x="680.00" y="1068.00" width="533.33" height="23" fill="#e89200"/>
<text x="1219.33" y="1085.00" font-size="13" fill="#334155">-63.7%</text>
<text x="600.00" y="1130.00" font-size="13" fill="#64748b">Percent difference - negative is less latency</text>
<text x="35.00" y="1194.00" font-size="13" fill="#64748b">Measured 2026-10-07T02:35:55Z | commit d2b163dbf50c</text>
</g>
</svg>
